<svg data-name="Capa 1" xmlns="http://www.w3.org/2000/svg" viewBox="0 0 11.299 18.351"><path d="M5.99 2.584a1.278 1.278 0 1 0-1.279-1.275A1.277 1.277 0 0 0 5.99 2.584ZM.262 16.163a.839.839 0 0 0-.225.572.854.854 0 0 0 .844.863.861.861 0 0 0 .623-.272l2.213-2.386s0-.009.009-.014a.921.921 0 0 0 .15-.235l1.069-2.545h.019a1.45 1.45 0 0 0 .347-.047l1.425 2.278.042.127-1.716 2.77a.265.265 0 0 0-.042.146.287.287 0 0 0 .281.286.279.279 0 0 0 .239-.136L7 15.216l.783 2.513a.852.852 0 0 0 1.627-.506l-1.081-3.464c0-.005 0-.014-.009-.019a.614.614 0 0 0-.037-.084.564.564 0 0 0-.033-.071.136.136 0 0 0-.014-.023l-.108-.174 2.25-3.637c.009 0 .019.005.033.005a.688.688 0 0 0 .168-.019.856.856 0 0 0 .3-1.547L8.451 6.568 6.665 4.187a.853.853 0 0 0-.37-.272 1.408 1.408 0 0 0-2.4.923l-.342 5.789a1.606 1.606 0 0 0 .028.361l-1.2 2.9Zm6.282-5.32a.775.775 0 0 0-.15-.173l.22-3.718.572.764.028.029a.783.783 0 0 0 .084.089.579.579 0 0 1 .052.042c.009.009.028.023.042.037l2.452 1.636L7.8 12.854Z"/><path d="M3.764 4.173a.85.85 0 0 0-1.674-.3l-.511 2.9a.853.853 0 0 0 .69.985.837.837 0 0 0 .15.014.855.855 0 0 0 .839-.7Z"/><path style="fill:none" d="M-6.35-2.824h24v24h-24z"/></svg>