<svg data-name="Capa 1" xmlns="http://www.w3.org/2000/svg" viewBox="0 0 20.92 15.898"><path d="M16.984 2.54a1.27 1.27 0 1 0-.005 0ZM3.029 6.748a.953.953 0 1 0-.954-.956.952.952 0 0 0 .954.956Z"/><path d="M20.892 7.866 19.674 4.06c0-.008-.008-.012-.011-.019a1.5 1.5 0 0 0-.61-.905 1.267 1.267 0 0 0-.731-.215h-2.714a1.321 1.321 0 0 0-.794.215 1.467 1.467 0 0 0-.609.911s-.006.008-.007.013l-.718 2.234-.512-1.4s-.368-1.273-.668-1.47a2.8 2.8 0 0 0-.99-.25h-1.8a2.773 2.773 0 0 0-.993.25c-.3.2-.67 1.474-.67 1.474l-1 2.719-2.355-.507a.409.409 0 0 0-.07 0 1.169 1.169 0 0 0-.392-.074H2a1.012 1.012 0 0 0-.6.159 1.124 1.124 0 0 0-.458.687v.008l-.921 2.851a.422.422 0 0 0 .27.532.376.376 0 0 0 .129.022A.428.428 0 0 0 .829 11l.808-2.528h.17v6.897a.529.529 0 0 0 1.058 0v-3.684h.247v3.685a.529.529 0 0 0 1.057 0V8.159l.147-.222 2.638.572a.55.55 0 0 0 .864-.255l1.213-3.3h.187L7.5 10.761h1.36v4.429a.7.7 0 1 0 1.406 0v-4.429h.33v4.429a.706.706 0 0 0 1.411 0v-4.429h1.356l-1.788-5.807h.208l1.205 3.278a.529.529 0 0 0 .061.121.553.553 0 0 0 .478.281.585.585 0 0 0 .194-.036.556.556 0 0 0 .367-.513l1.039-3.238h.228V15.192a.7.7 0 0 0 1.406 0V9.121h.331v6.071a.7.7 0 1 0 1.409 0V4.842h.234L19.82 8.21a.563.563 0 0 0 .536.395.541.541 0 0 0 .173-.029.562.562 0 0 0 .364-.707ZM10.492 2.8a1.272 1.272 0 1 0-1.271-1.273A1.271 1.271 0 0 0 10.492 2.8Z"/></svg>