<svg data-name="Capa 1" xmlns="http://www.w3.org/2000/svg" viewBox="0 0 15.693 20.068"><path d="M6.974 3.416a1.556 1.556 0 1 0-1.558-1.555 1.556 1.556 0 0 0 1.558 1.555ZM15.663.966a15.18 15.18 0 0 1 0 0Z"/><path d="M15.161.45a13.528 13.528 0 0 1-2.321 4.687 17.334 17.334 0 0 1-4.317 4V5.283c0-.045-.01-.085-.013-.128l4.967-3.738A.777.777 0 0 0 12.54.178L7.624 3.88a1.539 1.539 0 0 0-2.049.733l-.013.027-2.722.726L1.5 2.7a.776.776 0 0 0-1.389.693l1.62 3.239c.01.019.025.033.036.052a.791.791 0 0 0 .155.181.644.644 0 0 0 .065.052.761.761 0 0 0 .425.141h.015a.777.777 0 0 0 .185-.025h.012l2.793-.744V9.2h2.46a.311.311 0 0 1 0 .622H5.418v1.062c0 .038.008.073.01.109a1.043 1.043 0 0 0-.107.171L2.209 17.7a.928.928 0 0 0 .436 1.238.913.913 0 0 0 .4.091.935.935 0 0 0 .844-.53l2.843-5.976a.909.909 0 0 0 .646-.063l.806-.4v7.656a.31.31 0 0 0 .62 0v-7.951l1.857-.915.824 3.019a.931.931 0 0 0 .9.686.961.961 0 0 0 .244-.032.93.93 0 0 0 .656-1.14l-1.116-4.095a.044.044 0 0 0-.005-.015.029.029 0 0 0 0-.013.946.946 0 0 0-.056-.154v-.008c-.007-.013-.017-.025-.024-.037A.894.894 0 0 0 12 8.944c-.014-.018-.032-.033-.045-.049a.876.876 0 0 0-.079-.082l-.034-.025a1.056 1.056 0 0 0-.111-.078.93.93 0 0 0-.515-.121.526.526 0 0 0-.078.012 1.073 1.073 0 0 0-.111.019L11 8.63a.877.877 0 0 0-.149.052l-2 .983a17.738 17.738 0 0 0 4.47-4.141A13.845 13.845 0 0 0 15.663.966C15.5.79 15.333.619 15.161.45ZM8.523 9.83v-.01a.25.25 0 0 0 .045-.012Z"/><path style="fill:none" d="M-4.154-1.966h24v24h-24z"/></svg>