<svg data-name="Capa 1" xmlns="http://www.w3.org/2000/svg" viewBox="0 0 13.424 18.7"><path d="M.651 2.632A1.431 1.431 0 1 0 .23.651a1.431 1.431 0 0 0 .421 1.981ZM10.584 17.821a11.21 11.21 0 0 0 2.6-2.351 11.21 11.21 0 0 1-2.6 2.351ZM12.382.63a11.155 11.155 0 0 1 .789.88 11.155 11.155 0 0 0-.789-.88Z"/><path d="M10.933.09a.716.716 0 0 0-.7.46L8.848.5a.411.411 0 0 0-.432.388.409.409 0 0 0 .4.414l1.36.05V1.5c0 .415-.373.794-.446 1.34a1.535 1.535 0 0 1-.481 1.12.579.579 0 0 0-.043.055l-1.672-.259a.443.443 0 0 0-.21.028.451.451 0 0 0-.05-.115.528.528 0 0 0-.734-.134l-2.291 1.61-1.986-.2-.018-.174a1.063 1.063 0 0 0-2.115.223l.488 4.661a1.061 1.061 0 0 0 .762.906l3.24 2.558.431 4.853a.8.8 0 1 0 1.589-.14l-.462-5.193a.779.779 0 0 0-.413-.624.787.787 0 0 0-.127-.131l-2.276-1.795 2.119-.568c.008.009.014.02.023.029l2.875 2.985-.187.012a.4.4 0 1 0 .051.8l2-.125.252 2.045c.047.381.087.986.093 1.4l-1.773.112a.4.4 0 1 0 .052.8l1.723-.108v.344a11.205 11.205 0 0 0 2.6-2.35V8.832a4.539 4.539 0 0 0-.289-1.45l.525-5.558c-.08-.106-.164-.211-.248-.315a11.027 11.027 0 0 0-.796-.879Q12.2.453 12.02.284ZM9.94 12.437a.794.794 0 0 0-.187-.779l-3.1-3.216a.768.768 0 0 0-.327-.2.794.794 0 0 0-.885-.361l-2.793.745-.273-2.6 1.963.2h.055a.514.514 0 0 0 .177-.033c.018-.007.033-.017.05-.025a.579.579 0 0 0 .08-.041l2.446-1.72.005-.007a.424.424 0 0 0 .261.149l1.509.234a6.017 6.017 0 0 0 .043 2.067l.025.073-2.032.127a.4.4 0 1 0 .051.8l2.245-.141.249.748a9.161 9.161 0 0 1 .331 1.465l.308 2.5Z"/></svg>